<?xml version="1.0" encoding="utf-8"?>
<svg xmlns="http://www.w3.org/2000/svg" xmlns:xlink="http://www.w3.org/1999/xlink" style="margin: auto; background: none; display: block; shape-rendering: auto;" width="180px" height="180px" viewBox="0 0 100 100" preserveAspectRatio="xMidYMid">
<g transform="rotate(0 50 50)">
  <rect x="23.5" y="19.5" rx="20.14" ry="1.5" width="53" height="3" fill="#345df0">
    <animate attributeName="opacity" values="1;0" keyTimes="0;1" dur="0.5464480874316939s" begin="-0.46838407494145196s" repeatCount="indefinite"></animate>
  </rect>
</g><g transform="rotate(51.42857142857143 50 50)">
  <rect x="23.5" y="19.5" rx="20.14" ry="1.5" width="53" height="3" fill="#345df0">
    <animate attributeName="opacity" values="1;0" keyTimes="0;1" dur="0.5464480874316939s" begin="-0.39032006245121s" repeatCount="indefinite"></animate>
  </rect>
</g><g transform="rotate(102.85714285714286 50 50)">
  <rect x="23.5" y="19.5" rx="20.14" ry="1.5" width="53" height="3" fill="#345df0">
    <animate attributeName="opacity" values="1;0" keyTimes="0;1" dur="0.5464480874316939s" begin="-0.312256049960968s" repeatCount="indefinite"></animate>
  </rect>
</g><g transform="rotate(154.28571428571428 50 50)">
  <rect x="23.5" y="19.5" rx="20.14" ry="1.5" width="53" height="3" fill="#345df0">
    <animate attributeName="opacity" values="1;0" keyTimes="0;1" dur="0.5464480874316939s" begin="-0.23419203747072598s" repeatCount="indefinite"></animate>
  </rect>
</g><g transform="rotate(205.71428571428572 50 50)">
  <rect x="23.5" y="19.5" rx="20.14" ry="1.5" width="53" height="3" fill="#345df0">
    <animate attributeName="opacity" values="1;0" keyTimes="0;1" dur="0.5464480874316939s" begin="-0.156128024980484s" repeatCount="indefinite"></animate>
  </rect>
</g><g transform="rotate(257.14285714285717 50 50)">
  <rect x="23.5" y="19.5" rx="20.14" ry="1.5" width="53" height="3" fill="#345df0">
    <animate attributeName="opacity" values="1;0" keyTimes="0;1" dur="0.5464480874316939s" begin="-0.078064012490242s" repeatCount="indefinite"></animate>
  </rect>
</g><g transform="rotate(308.57142857142856 50 50)">
  <rect x="23.5" y="19.5" rx="20.14" ry="1.5" width="53" height="3" fill="#345df0">
    <animate attributeName="opacity" values="1;0" keyTimes="0;1" dur="0.5464480874316939s" begin="0s" repeatCount="indefinite"></animate>
  </rect>
</g>
<!-- [ldio] generated by https://loading.io/ --></svg>